<svg width="75" height="75" viewBox="0 0 75 75" fill="none" xmlns="http://www.w3.org/2000/svg">
<g clip-path="url(#clip0_690_276)">
<path d="M37.5 75C58.2107 75 75 58.2107 75 37.5C75 16.7893 58.2107 0 37.5 0C16.7893 0 0 16.7893 0 37.5C0 58.2107 16.7893 75 37.5 75Z" fill="#F1F0EA"/>
<path d="M9 36.1235V36.0477C9.68974 27.1882 12.9126 20.5429 18.5115 16.3416C24.0344 12.0646 30.0187 10.0018 36.538 10.0018C43.3643 9.92606 49.7315 12.2161 55.4089 16.7986C61.1625 21.3054 64 28.0265 64 36.7321V37.2673C64 46.0511 61.1625 52.6182 55.4089 57.125C49.6554 61.7075 43.2882 64 36.462 64H36.1551C29.4811 63.9242 23.3446 61.6317 17.6696 57.0492C11.9921 52.5424 9.07855 45.5916 9.00245 36.1211L9 36.1235ZM34.8493 24.1331V12.0646H33.0083C32.6254 12.524 32.3186 13.0568 32.0118 13.5163C31.705 13.9758 31.3981 14.4328 31.0913 14.9681C30.7845 15.4275 30.4016 16.0385 30.1708 16.4956C29.864 16.9551 29.6333 17.4121 29.4026 17.9473C28.9411 18.7123 28.5582 19.4748 28.2514 20.1616C27.8684 20.8484 27.5616 21.5376 27.3309 22.1486C27.7923 22.4541 28.3274 22.8354 28.9411 23.0651C29.6308 23.2948 30.323 23.5246 31.0128 23.6761C31.7811 23.8301 32.4708 23.9058 33.0844 23.9816C33.7742 24.0574 34.3878 24.1356 34.8493 24.1356V24.1331ZM38.0722 12.067V24.0574C38.4551 24.0574 38.9165 24.1331 39.3756 24.0574C39.837 24.0574 40.3721 23.9816 40.8336 23.9034C41.678 23.7494 42.6745 23.5221 43.4428 23.2924C44.2872 22.9869 45.053 22.6056 45.5906 22.1462C44.6701 19.9319 43.6735 18.1746 42.6745 16.4931C41.6755 14.8117 40.5268 13.3623 39.2995 12.1403V12.0646H38.0722V12.067ZM29.7879 12.7538V12.678C29.2504 12.9078 28.7128 13.289 28.0992 13.5188C27.5616 13.7485 26.8719 14.054 26.3343 14.3595C25.2592 14.8947 24.1865 15.5058 23.1114 16.1925C22.1149 16.8793 21.1159 17.6443 20.2739 18.4068C20.5808 18.7123 20.9637 19.0178 21.2705 19.2475C21.5773 19.4773 21.9602 19.7828 22.3456 20.0883C22.6524 20.2423 23.0353 20.4696 23.4207 20.7751C23.8036 21.0048 24.2651 21.3103 24.7241 21.6158C25.3378 20.2398 25.9514 18.7905 26.7197 17.4903C27.488 16.1143 28.3299 14.8165 29.1743 13.6703C29.2504 13.5163 29.3289 13.3648 29.4811 13.2108C29.5572 13.1351 29.6357 12.9078 29.7879 12.7538ZM53.2587 18.4044V18.3286C51.3417 16.8768 49.6529 15.6548 47.9666 14.8923C46.2803 14.1298 44.5916 13.3648 43.0574 12.7538C44.2847 13.9758 45.3598 15.5033 46.0496 16.9551C46.8179 18.4826 47.5837 20.0858 48.1973 21.6134C48.5042 21.4594 48.8871 21.3079 49.3486 21.0024C49.7315 20.7726 50.269 20.5429 50.7305 20.3156C51.1919 20.0101 51.5749 19.7046 52.0339 19.3991C52.4953 19.0178 52.9543 18.7123 53.2612 18.4068L53.2587 18.4044ZM51.9553 35.4367H60.7771C60.7771 32.6114 60.1635 29.9377 59.0123 27.1882C57.9372 24.5144 56.403 22.3001 54.486 20.3913V20.3156C54.1031 20.9266 53.5655 21.4618 53.028 21.8431C52.4143 22.2244 51.8768 22.5299 51.2631 22.8354C50.8802 23.0651 50.4948 23.3706 50.1119 23.5221C49.729 23.7519 49.1915 23.9034 48.8085 24.1331C49.1154 24.7441 49.4222 25.4309 49.729 26.0419C49.9597 26.7287 50.3427 27.4937 50.4973 28.1804C50.9588 29.4025 51.2656 30.7002 51.5724 32.0004C51.8031 33.1467 51.9553 34.3687 51.9553 35.4367ZM24.189 24.1331V24.0574C23.5754 23.7519 22.8856 23.5221 22.3481 23.2166C21.8105 22.8354 21.273 22.4517 20.8139 22.1462C20.3525 21.9164 19.8935 21.6109 19.5106 21.3054C19.1276 20.9999 18.8208 20.6944 18.514 20.3889C16.5184 22.2977 15.0628 24.4362 14.1424 26.9584C13.1458 29.4782 12.4536 32.3059 12.1468 35.361H21.5822C21.5822 33.2225 21.8891 31.1597 22.4266 29.0969C22.8881 26.9584 23.5754 25.3552 24.189 24.1331ZM34.8493 35.361V26.5772C34.2356 26.6529 33.4674 26.6529 32.7776 26.5772C32.0093 26.5014 31.2435 26.2717 30.5538 26.0419C29.9401 25.888 29.1718 25.7364 28.5582 25.5067C27.8684 25.3527 27.1762 25.0472 26.6411 24.7417C26.1797 25.5067 25.7968 26.4232 25.4899 27.4155C25.107 28.332 24.8763 29.3242 24.6456 30.2407C24.4909 31.1573 24.4148 32.1495 24.3387 32.9903C24.2626 33.831 24.1841 34.6718 24.1841 35.3585H34.8468L34.8493 35.361ZM38.0722 26.7311V35.361H49.4246C49.4246 34.9015 49.4246 34.3687 49.3486 33.7577C49.1939 33.2225 49.1178 32.5357 49.0417 31.9247C48.811 31.0082 48.5803 30.0159 48.2734 29.0994C47.9666 28.2586 47.6598 27.4179 47.2769 26.7311C47.1222 26.3499 46.9701 25.8904 46.8154 25.5849C46.5847 25.2036 46.354 24.9739 46.2018 24.7441C45.3574 25.3552 44.2062 25.7364 42.8267 26.0419C41.5233 26.3474 39.9892 26.6529 38.6073 26.7287H38.0697L38.0722 26.7311ZM21.5798 37.8808H12.1443C12.1443 39.1785 12.3751 40.6303 12.758 42.3875C13.1409 44.2205 13.9092 45.902 14.7536 47.735C15.1365 48.6516 15.5979 49.5681 16.0569 50.4846C16.5945 51.3253 17.2081 52.2418 17.8218 53.0826C18.2833 52.7771 18.7423 52.5473 19.1252 52.3176C19.5866 52.0878 20.1217 51.7823 20.5832 51.5526C21.1208 51.3229 21.6583 51.0931 22.272 50.7876C22.8095 50.5579 23.4993 50.2524 24.189 49.9469C23.5754 48.0381 22.8856 46.2051 22.4242 44.1423C21.8866 42.1553 21.5798 40.1708 21.5798 37.9565V37.8808ZM34.8493 46.8161V37.8808H24.1865C24.1865 38.4918 24.2626 39.4083 24.4173 40.3248C24.4934 41.2413 24.7241 42.2336 24.8787 43.2283C25.1856 44.2988 25.4163 45.3668 25.7231 46.2833C26.0299 47.1998 26.3368 47.9648 26.6436 48.6516C28.0255 48.1163 29.405 47.735 30.3255 47.5053C31.322 47.1998 32.2425 46.9701 33.163 46.8943H34.0074C34.3142 46.8185 34.621 46.8185 34.8517 46.8185L34.8493 46.8161ZM38.0722 37.8808V46.7403C38.6097 46.8161 39.2234 46.8943 39.837 46.9701C40.5268 47.0458 41.3711 47.1998 42.0609 47.3513L43.2121 47.5811C43.595 47.735 44.0565 47.8108 44.4394 47.8866C44.9008 48.0405 45.3598 48.1163 45.8213 48.2678C46.2042 48.4218 46.5896 48.4976 46.8964 48.6491C47.893 46.1293 48.5066 44.0666 48.892 42.3093C49.2749 40.6278 49.4296 39.1785 49.4296 37.9565V37.8808H38.0771H38.0722ZM60.7771 37.9565V37.8808H51.9553V38.3402C51.8792 39.792 51.6485 41.471 51.3417 43.2283C51.0349 44.9098 50.3451 46.8943 49.4246 49.3383C50.6519 49.9493 51.8031 50.5603 52.7236 51.1713C53.6441 51.7823 54.4885 52.4691 55.1021 53.0801C56.4055 51.7823 57.5567 50.0251 58.5533 47.7326C59.5498 45.5183 60.242 43.2258 60.6249 40.7818C60.701 40.3223 60.701 39.8653 60.7796 39.4058V37.9541L60.7771 37.9565ZM34.8493 61.1747V49.2601C32.9323 49.5656 31.3196 49.9469 30.0923 50.2524C28.865 50.5579 27.9445 50.8634 27.3309 51.1689C27.7923 52.3151 28.2514 53.3074 28.7128 54.2239C29.1743 55.0647 29.7094 55.9812 30.1708 56.7437C30.3255 57.0492 30.6323 57.3547 30.8606 57.736C31.0913 58.0415 31.2435 58.4227 31.4742 58.7283C31.705 59.1095 31.9357 59.569 32.164 60.026C32.4708 60.4073 32.7015 60.8668 33.0083 61.1723L34.8493 61.1747ZM38.0722 61.1747H39.837C40.5268 60.6395 41.2189 59.8769 41.7541 59.0362C42.3677 58.1955 43.0574 57.2032 43.5189 56.3624C44.0565 55.3702 44.594 54.4537 45.053 53.5372C45.512 52.6206 45.8974 51.7799 46.2042 51.1689C45.3598 50.8634 44.2086 50.5579 43.0599 50.2524C41.9111 49.9469 40.2985 49.6414 38.0746 49.3359V61.1747H38.0722ZM53.2587 54.9131V54.8374C53.1041 54.6076 52.7973 54.3021 52.569 54.0724C52.3407 53.8427 51.9553 53.5372 51.5724 53.3074C51.2656 53.0777 50.8827 52.8479 50.4212 52.6206C49.9597 52.3933 49.3461 52.0854 48.811 51.7799C48.5042 52.3909 47.9666 53.4614 47.2008 54.9107C46.511 56.3624 45.2837 58.1197 43.7496 60.0285C45.6667 59.723 47.3554 59.0362 48.8895 58.1197C50.5783 57.2789 52.0339 56.1327 53.2612 54.9107L53.2587 54.9131ZM24.7241 52.4691V52.3933C24.1865 52.6989 23.3422 53.0801 22.5002 53.4638C21.5798 53.8451 20.5832 54.3046 19.6627 54.9156C20.2003 55.3751 20.7378 55.8321 21.1969 56.1376C21.6583 56.5189 22.1934 56.8244 22.6549 57.1299C23.4993 57.6651 24.4958 58.2003 25.4924 58.6574C26.489 59.1144 27.7162 59.5739 29.2504 60.0334C28.7128 59.4223 28.3299 58.6574 27.947 58.0464C27.5641 57.4354 27.1026 56.8244 26.7197 56.2134C26.3368 55.6023 26.0299 54.9156 25.7231 54.3046C25.3402 53.6936 25.0334 53.0826 24.7266 52.4716L24.7241 52.4691Z" fill="#1D1D1D"/>
</g>
<defs>
<clipPath id="clip0_690_276">
<rect width="75" height="75" fill="white"/>
</clipPath>
</defs>
</svg>
