<svg width="75" height="75" viewBox="0 0 75 75" fill="none" xmlns="http://www.w3.org/2000/svg">
<g clip-path="url(#clip0_690_250)">
<path d="M37.5 75C58.2107 75 75 58.2107 75 37.5C75 16.7893 58.2107 0 37.5 0C16.7893 0 0 16.7893 0 37.5C0 58.2107 16.7893 75 37.5 75Z" fill="#F1F0EA"/>
<path d="M37.5017 40.2565C37.3013 40.2566 37.1061 40.1926 36.9448 40.0737L12.6955 22.189C12.5932 22.1172 12.5064 22.0256 12.44 21.9198C12.3737 21.8139 12.3291 21.6958 12.3091 21.5725C12.289 21.4492 12.2938 21.3231 12.3231 21.2017C12.3525 21.0802 12.4058 20.9659 12.48 20.8653C12.5541 20.7648 12.6476 20.6801 12.755 20.6162C12.8624 20.5523 12.9815 20.5105 13.1052 20.4933C13.229 20.4761 13.3549 20.4838 13.4756 20.516C13.5964 20.5481 13.7095 20.6041 13.8083 20.6806L37.5017 38.1565L61.1951 20.6806C61.3955 20.5398 61.643 20.483 61.8847 20.5224C62.1264 20.5617 62.3431 20.6941 62.4885 20.8911C62.6339 21.0882 62.6964 21.3343 62.6626 21.5768C62.6289 21.8194 62.5016 22.0391 62.308 22.189L38.0586 40.0737C37.8973 40.1926 37.7021 40.2566 37.5017 40.2565Z" fill="#1D1D1D"/>
<path d="M58.7184 59.6561H16.2816C14.4257 59.6541 12.6465 58.9161 11.3341 57.6039C10.0218 56.2917 9.28348 54.5126 9.28125 52.6567V22.3436C9.28348 20.4878 10.0218 18.7086 11.3341 17.3964C12.6465 16.0843 14.4257 15.3462 16.2816 15.3442H58.7184C60.5743 15.346 62.3537 16.0839 63.6662 17.3962C64.9786 18.7084 65.7168 20.4877 65.7188 22.3436V52.6567C65.7168 54.5126 64.9786 56.292 63.6662 57.6042C62.3537 58.9164 60.5743 59.6544 58.7184 59.6561ZM16.2816 17.2192C14.9228 17.2205 13.62 17.7607 12.6591 18.7214C11.6982 19.6822 11.1577 20.9848 11.1562 22.3436V52.6567C11.1577 54.0155 11.6982 55.3182 12.6591 56.2789C13.62 57.2396 14.9228 57.7799 16.2816 57.7811H58.7184C60.0772 57.7799 61.38 57.2396 62.3409 56.2789C63.3018 55.3182 63.8423 54.0155 63.8438 52.6567V22.3436C63.8423 20.9848 63.3018 19.6822 62.3409 18.7214C61.38 17.7607 60.0772 17.2205 58.7184 17.2192H16.2816Z" fill="#1D1D1D"/>
</g>
<defs>
<clipPath id="clip0_690_250">
<rect width="75" height="75" fill="white"/>
</clipPath>
</defs>
</svg>
