<svg width="75" height="75" viewBox="0 0 75 75" fill="none" xmlns="http://www.w3.org/2000/svg">
<g clip-path="url(#clip0_690_269)">
<path d="M37.5 75C58.2107 75 75 58.2107 75 37.5C75 16.7893 58.2107 0 37.5 0C16.7893 0 0 16.7893 0 37.5C0 58.2107 16.7893 75 37.5 75Z" fill="#F1F0EA"/>
<path d="M26.3615 15.875C27.3543 15.875 28.2093 16.61 28.3097 17.5484C28.5253 19.5842 28.9289 21.5956 29.5153 23.5569L29.5209 23.5775C29.7507 24.354 29.7658 25.1782 29.5644 25.9625C29.363 26.7469 28.9527 27.4619 28.3772 28.0316L24.5409 31.8678C24.2554 32.1535 24.0698 32.5237 24.0117 32.9234C23.9536 33.323 24.0261 33.7308 24.2184 34.0859C28.1319 41.3304 34.0758 47.2743 41.3203 51.1878C41.6754 51.3801 42.0832 51.4526 42.4828 51.3945C42.8825 51.3364 43.2527 51.1508 43.5384 50.8653L47.3746 47.0291C48.2209 46.1839 49.3661 45.7062 50.5621 45.6997C50.9906 45.7 51.4167 45.7632 51.8268 45.8872C53.7947 46.4768 55.813 46.8823 57.8559 47.0984C58.0719 47.1177 58.2811 47.184 58.4688 47.2927C58.6565 47.4013 58.8182 47.5497 58.9425 47.7275C59.3259 48.2469 59.5293 49.04 59.5293 50.0262V58.0137C59.5232 58.5526 59.3035 59.067 58.9187 59.4441C58.5338 59.8213 58.0151 60.0304 57.4762 60.0256C57.4137 60.0256 57.349 60.0228 57.2822 60.0172C51.8561 59.5419 46.5582 58.1032 41.6371 55.7684C34.3589 52.3267 28.1072 47.0416 23.5024 40.4374C18.8977 33.8332 16.1001 26.1397 15.3872 18.1203C15.36 17.832 15.3936 17.5412 15.4858 17.2667C15.578 16.9922 15.7268 16.74 15.9225 16.5266C16.1089 16.3208 16.3365 16.1566 16.5906 16.0447C16.8447 15.9327 17.1195 15.8756 17.3972 15.8769H26.3615M26.3615 14.0019H17.3972C15.0928 14.0019 13.3172 15.9931 13.5197 18.2891C15.5643 41.42 33.989 59.8428 57.119 61.8866C57.24 61.8969 57.359 61.9025 57.4781 61.9025C59.6184 61.9025 61.4062 60.1991 61.4062 58.0156V50.0244C61.4062 47.1069 59.9775 45.4363 58.0556 45.2328C56.1283 45.0289 54.2241 44.646 52.3678 44.0891C51.7826 43.9137 51.1749 43.8246 50.564 43.8247C48.8698 43.8271 47.2457 44.5014 46.0481 45.6997L42.2128 49.5387C35.2943 45.791 29.6153 40.1119 25.8675 33.1934L29.7028 29.3572C30.5167 28.5475 31.0963 27.5325 31.38 26.4201C31.6637 25.3076 31.6411 24.1391 31.3143 23.0384C30.7579 21.182 30.375 19.2779 30.1706 17.3506C29.9671 15.4287 28.2909 14 26.3587 14L26.3615 14.0019Z" fill="#1D1D1D"/>
</g>
<defs>
<clipPath id="clip0_690_269">
<rect width="75" height="75" fill="white"/>
</clipPath>
</defs>
</svg>
